<mxfile host="65bd71144e">
    <diagram id="FtVn-XKQhiXiFKX0EcqP" name="第1頁">
        <mxGraphModel dx="741" dy="568" grid="1" gridSize="10" guides="1" tooltips="1" connect="1" arrows="1" fold="1" page="1" pageScale="1" pageWidth="827" pageHeight="1169" math="0" shadow="0">
            <root>
                <mxCell id="0"/>
                <mxCell id="1" parent="0"/>
                <mxCell id="5" style="edgeStyle=none;html=1;exitX=1;exitY=0.5;exitDx=0;exitDy=0;entryX=0;entryY=0.5;entryDx=0;entryDy=0;endArrow=none;endFill=0;" parent="1" source="2" target="4" edge="1">
                    <mxGeometry relative="1" as="geometry"/>
                </mxCell>
                <mxCell id="7" value="1" style="edgeLabel;html=1;align=center;verticalAlign=middle;resizable=0;points=[];" vertex="1" connectable="0" parent="5">
                    <mxGeometry x="-0.8852" relative="1" as="geometry">
                        <mxPoint y="20" as="offset"/>
                    </mxGeometry>
                </mxCell>
                <mxCell id="8" value="1..*" style="edgeLabel;html=1;align=center;verticalAlign=middle;resizable=0;points=[];" vertex="1" connectable="0" parent="5">
                    <mxGeometry x="0.9061" y="2" relative="1" as="geometry">
                        <mxPoint x="-108" y="22" as="offset"/>
                    </mxGeometry>
                </mxCell>
                <mxCell id="2" value="老師" style="html=1;" parent="1" vertex="1">
                    <mxGeometry x="80" y="200" width="110" height="40" as="geometry"/>
                </mxCell>
                <mxCell id="4" value="學生" style="html=1;" parent="1" vertex="1">
                    <mxGeometry x="520" y="200" width="110" height="40" as="geometry"/>
                </mxCell>
                <mxCell id="6" value="教導" style="text;strokeColor=none;fillColor=none;align=left;verticalAlign=top;spacingLeft=4;spacingRight=4;overflow=hidden;rotatable=0;points=[[0,0.5],[1,0.5]];portConstraint=eastwest;fontSize=11;" parent="1" vertex="1">
                    <mxGeometry x="314" y="190" width="100" height="26" as="geometry"/>
                </mxCell>
                <mxCell id="9" value="" style="triangle;whiteSpace=wrap;html=1;rotation=105;" vertex="1" parent="1">
                    <mxGeometry x="470" y="197.99999999999997" width="10" height="10" as="geometry"/>
                </mxCell>
            </root>
        </mxGraphModel>
    </diagram>
</mxfile>